<?xml version="1.0" standalone="no"?>
<!DOCTYPE svg PUBLIC "-//W3C//DTD SVG 20010904//EN"
 "http://www.w3.org/TR/2001/REC-SVG-20010904/DTD/svg10.dtd">
<svg version="1.0" xmlns="http://www.w3.org/2000/svg"
 width="16.000000pt" height="16.000000pt" viewBox="0 0 16.000000 16.000000"
 preserveAspectRatio="xMidYMid meet">
<metadata>
Created by potrace 1.11, written by Peter Selinger 2001-2013
</metadata>
<g transform="translate(0.000000,16.000000) scale(0.020513,-0.020513)"
fill="#000000" stroke="none">
<path d="M295 746 c-117 -36 -215 -134 -242 -240 -10 -40 -18 -156 -11 -158 4
-2 8 -18 10 -35 1 -18 6 -33 10 -33 4 0 8 -9 8 -20 0 -11 4 -20 9 -20 5 0 12
-11 15 -25 4 -14 11 -25 17 -25 6 0 7 -5 3 -12 -4 -6 -3 -8 3 -5 11 7 40 -21
36 -32 -2 -3 0 -6 5 -7 16 -1 62 -28 62 -36 0 -4 9 -8 21 -8 13 0 18 -4 13
-12 -5 -7 -2 -9 9 -5 9 3 28 -3 44 -16 19 -14 23 -16 14 -4 -17 22 -7 22 26 0
15 -10 24 -12 20 -5 -9 13 5 17 17 5 10 -11 37 -12 30 -2 -3 5 2 9 11 9 10 0
14 -5 10 -12 -4 -7 0 -5 8 5 15 18 32 24 22 7 -10 -16 2 -12 21 7 13 14 18 15
22 5 3 -10 8 -7 19 7 8 12 19 18 25 15 6 -4 17 1 25 11 7 11 13 15 13 11 0 -4
12 6 26 21 14 15 34 27 43 25 10 -2 12 0 4 5 -16 11 22 57 39 47 10 -5 10 -4
1 6 -13 14 -6 43 8 34 5 -3 6 3 2 12 -3 10 -2 15 3 12 12 -8 19 48 18 147 0
71 -4 87 -34 143 -62 116 -166 183 -294 188 -39 1 -89 -3 -111 -10z"/>
</g>
</svg>
